<svg width="32" height="32" viewBox="0 0 32 32" fill="none" xmlns="http://www.w3.org/2000/svg">
<g clip-path="url(#clip0)">
<path d="M28.5222 2.78174H20.1741C19.7901 2.78174 19.4784 3.09342 19.4784 3.47743C19.4784 3.86145 19.7901 4.17313 20.1741 4.17313H28.5222C28.9062 4.17313 29.2179 3.86145 29.2179 3.47743C29.2179 3.09342 28.9062 2.78174 28.5222 2.78174Z" fill="black"/>
<path d="M29.0149 2.9862L26.2322 0.203485C25.9609 -0.0678282 25.5198 -0.0678282 25.2485 0.203485C24.9772 0.474798 24.9772 0.915877 25.2485 1.18719L27.5387 3.47737L25.2471 5.76892C24.9758 6.04024 24.9758 6.48132 25.2471 6.75263C25.3835 6.88757 25.5615 6.95579 25.7397 6.95579C25.9178 6.95579 26.0958 6.88763 26.2322 6.75263L29.0149 3.96991C29.2862 3.69853 29.2862 3.25752 29.0149 2.9862Z" fill="black"/>
<path d="M10.4349 2.78174H2.08682C1.7028 2.78174 1.39112 3.09342 1.39112 3.47743C1.39112 3.86145 1.7028 4.17313 2.08682 4.17313H10.4349C10.8189 4.17313 11.1306 3.86145 11.1306 3.47743C11.1306 3.09342 10.8189 2.78174 10.4349 2.78174Z" fill="black"/>
<path d="M3.07032 3.47591L5.3605 1.18573C5.63182 0.914412 5.63182 0.473333 5.3605 0.20202C5.08919 -0.0692931 4.64811 -0.0692931 4.3768 0.20202L1.59414 2.9848C1.32283 3.25612 1.32283 3.6972 1.59414 3.96851L4.37686 6.75123C4.51324 6.88617 4.69129 6.95439 4.8694 6.95439C5.04752 6.95439 5.22556 6.88623 5.36057 6.74986C5.63188 6.47855 5.63188 6.03747 5.36057 5.76615L3.07032 3.47591Z" fill="black"/>
<path d="M27.8266 13.9123C27.2547 13.9123 26.7218 14.0862 26.2793 14.3826C25.8981 13.3001 24.8643 12.5209 23.6525 12.5209C23.0807 12.5209 22.5478 12.6949 22.1053 12.9912C21.7241 11.9088 20.6903 11.1296 19.4785 11.1296C18.972 11.1296 18.4962 11.266 18.0871 11.5039V6.95557C18.0871 5.42089 16.8391 4.17285 15.3044 4.17285C13.7697 4.17285 12.5217 5.42089 12.5217 6.95557V18.782L10.1036 16.9691C8.67048 15.8936 6.63075 16.0369 5.36047 17.3058C4.54653 18.1198 4.54653 19.4429 5.36047 20.2569L15.2683 30.1661C16.4509 31.3487 18.0245 31.9998 19.6969 31.9998H22.9569C27.1755 31.9998 30.6093 28.5674 30.6093 24.3474V16.695C30.6093 15.1603 29.3612 13.9123 27.8266 13.9123ZM29.2179 24.3474C29.2179 27.7993 26.4088 30.6084 22.9569 30.6084H19.6969C18.3946 30.6084 17.1716 30.102 16.252 29.1823L6.34417 19.2732C6.07286 19.0019 6.07286 18.5608 6.34417 18.2895C6.77547 17.8595 7.35149 17.6383 7.93031 17.6383C8.40061 17.6383 8.87364 17.7844 9.27018 18.0821L12.8 20.7298C13.0116 20.8885 13.2954 20.9121 13.5291 20.7953C13.7643 20.677 13.9132 20.4363 13.9132 20.1733V6.95557C13.9132 6.18891 14.5365 5.56424 15.3045 5.56424C16.0725 5.56424 16.6958 6.18898 16.6958 6.95557V17.3907C16.6958 17.7747 17.0075 18.0864 17.3915 18.0864C17.7755 18.0864 18.0872 17.7747 18.0872 17.3907V13.9123C18.0872 13.1457 18.7105 12.521 19.4785 12.521C20.2465 12.521 20.8699 13.1457 20.8699 13.9123V17.3907C20.8699 17.7747 21.1815 18.0864 21.5655 18.0864C21.9496 18.0864 22.2612 17.7747 22.2612 17.3907V15.3037C22.2612 14.537 22.8845 13.9123 23.6526 13.9123C24.4206 13.9123 25.0439 14.5371 25.0439 15.3037V17.3907C25.0439 17.7747 25.3556 18.0864 25.7396 18.0864C26.1236 18.0864 26.4353 17.7747 26.4353 17.3907V16.695C26.4353 15.9283 27.0586 15.3037 27.8266 15.3037C28.5946 15.3037 29.2179 15.9284 29.2179 16.695V24.3474Z" fill="black"/>
</g>
<defs>
<clipPath id="clip0">
<rect width="32" height="32" fill="white"/>
</clipPath>
</defs>
</svg>
